<svg viewBox="0 0 512 512" xmlns="http://www.w3.org/2000/svg"><g id="Flat"><path d="m376 224a48 48 0 0 1 48 48v216h-32v-216a16 16 0 0 0 -16-16 16 16 0 0 0 -16 16v16h-32v-16a48 48 0 0 1 48-48z" fill="#92563a"/><path d="m392 385.357v102.643h32v-139.072z" fill="#804a32"/><path d="m88 264h128a0 0 0 0 1 0 0v80a16 16 0 0 1 -16 16h-96a16 16 0 0 1 -16-16v-80a0 0 0 0 1 0 0z" fill="#6e3c26"/><path d="m167.069 281.054-4.976-39.813a10.4 10.4 0 0 0 -9.214-9.2 10.138 10.138 0 0 0 -10.925 8.83l-5.023 40.186a8 8 0 0 1 -8.931 6.943 8 8 0 0 1 -6.946-8.931l4.946-39.549c1.575-12.6 11.72-22.7 24.394-23.471a26.162 26.162 0 0 1 27.531 22.835l5.023 40.185a8 8 0 0 1 -6.948 8.931 8 8 0 0 1 -8.931-6.946z" fill="#92563a"/><path d="m260 96h-92a32 32 0 0 0 -32 32v64h40v-56h84a20 20 0 0 0 20-20 20 20 0 0 0 -20-20z" fill="#ad4275"/><path d="m136 192h40v40h-40z" fill="#fec9a3"/><path d="m296 192v-64.546a31.454 31.454 0 0 0 -57.374-17.819l-59.6 80.632a97.116 97.116 0 0 0 -17.689 41.733h114.663z" fill="#c7568c"/><path d="m276 232h-114.663a97.112 97.112 0 0 0 -1.337 16v56l-16 88h144l-16-128z" fill="#804a32"/><path d="m240 456v32h50.523a13.477 13.477 0 0 0 13.477-13.477 13.477 13.477 0 0 0 -10.209-13.075l-21.791-5.448z" fill="#92563a"/><path d="m240 392v64h32l8-64z" fill="#fec9a3"/><path d="m168 392-24 48 32 8 40-56z" fill="#fec9a3"/><path d="m128 472 45.943 15.314a13.363 13.363 0 0 0 4.225.686h5.574a13.361 13.361 0 0 0 11.951-7.386 13.362 13.362 0 0 0 -2.5-15.424l-17.193-17.19-32-8z" fill="#92563a"/><circle cx="256" cy="48" fill="#bfbfbd" r="24"/><path d="m336 152a40 40 0 0 1 -40-40v-32a40 40 0 0 1 40-40c22.091 0 32 8 40 32l11.612 29.029a8 8 0 0 1 -7.428 10.971h-4.184a40 40 0 0 1 -40 40z" fill="#fec9a3"/><path d="m344 72h16v16h-16z" fill="#8c5338"/><path d="m296 112 24-48h44a20 20 0 0 0 20-20 20 20 0 0 0 -20-20h-52a40 40 0 0 0 -40 40 48 48 0 0 0 9.6 28.8z" fill="#bfbfbd"/><path d="m352 208h-56v-88a24 24 0 0 0 -24-24 24 24 0 0 0 -24 24v96a32 32 0 0 0 32 32h72z" fill="#d3669a"/><path d="m376 208h-24v40h8l8 8h32v-24a24 24 0 0 0 -24-24z" fill="#fec9a3"/></g></svg>